<svg width="19" height="22" viewBox="0 0 19 22" fill="none" xmlns="http://www.w3.org/2000/svg">
<path d="M16.6923 17.5H6.30773C5.8026 17.5 5.37503 17.325 5.02503 16.975C4.67503 16.625 4.50003 16.1974 4.50003 15.6923V2.30772C4.50003 1.80259 4.67503 1.37502 5.02503 1.02502C5.37503 0.675023 5.8026 0.500023 6.30773 0.500023H13.25L18.5 5.74997V15.6923C18.5 16.1974 18.325 16.625 17.975 16.975C17.625 17.325 17.1974 17.5 16.6923 17.5ZM12.5 6.49997V2H6.30773C6.2308 2 6.16027 2.03205 6.09616 2.09615C6.03206 2.16027 6.00001 2.23079 6.00001 2.30772V15.6923C6.00001 15.7692 6.03206 15.8397 6.09616 15.9038C6.16027 15.9679 6.2308 16 6.30773 16H16.6923C16.7692 16 16.8397 15.9679 16.9039 15.9038C16.968 15.8397 17 15.7692 17 15.6923V6.49997H12.5ZM2.30773 21.5C1.8026 21.5 1.37503 21.325 1.02503 20.975C0.675031 20.625 0.500031 20.1974 0.500031 19.6923V6.50002H2.00001V19.6923C2.00001 19.7692 2.03206 19.8397 2.09616 19.9039C2.16027 19.968 2.2308 20 2.30773 20H12.5V21.5L2.30773 21.5Z" fill="#676C80"/>
</svg>
